<svg xmlns="http://www.w3.org/2000/svg" version="1.1" xmlns:xlink="http://www.w3.org/1999/xlink" xmlns:svgjs="http://svgjs.dev/svgjs" width="1440" height="3000" preserveAspectRatio="none" viewBox="0 0 1440 3000"><g mask="url(&quot;#SvgjsMask1006&quot;)" fill="none"><rect width="1440" height="3000" x="0" y="0" fill="rgba(15, 15, 15, 1)"></rect><path d="M360 343.64C182.9 349.85 140.28 253.91 0 120C-39.72 82.09 -45 15 0 0C135 -45 180 0 360 0C540 0 540 0 720 0C900 0 900 0 1080 0C1260 0 1350 -90 1440 0C1530 90 1440 180 1440 360C1440 534 1445.06 535.91 1440 708C1439.77 715.91 1429.41 714.17 1429.41 720C1429.41 725.46 1439.78 723.19 1440 730.59C1445.08 903.19 1440 905.3 1440 1080C1440 1260 1440 1260 1440 1440C1440 1620 1440 1620 1440 1800C1440 1980 1440 1980 1440 2160C1440 2265.88 1481.54 2371.76 1440 2371.76C1383.36 2371.76 1256.5 2282.54 1243.64 2160C1226.5 1996.66 1354.24 1985.57 1380 1800C1404.21 1625.57 1412.41 1599.58 1343.57 1440C1262.41 1251.85 1215.65 1268.2 1080 1104.55C1066.45 1088.2 1054.3 1098.93 1045.16 1080C961.49 906.65 899.35 901.67 894.38 720C889.5 541.67 1067.86 512.06 1025.45 360C980.67 199.43 879.82 98.67 720 94.74C547.1 90.49 542.9 337.22 360 343.64" stroke="rgba(29, 29, 29, 1)" stroke-width="2"></path><path d="M0 1306.67C54.72 1306.67 175.61 1371.26 175.61 1440C175.61 1511.39 53.48 1586.94 0 1586.94C-34.32 1586.94 0 1513.47 0 1440C0 1373.34 -33.09 1306.67 0 1306.67" stroke="rgba(29, 29, 29, 1)" stroke-width="2"></path><path d="M0 1968.39C78.79 1968.39 252.77 2064.19 252.77 2160C252.77 2255.81 78.79 2351.61 0 2351.61C-47.6 2351.61 0 2255.81 0 2160C0 2064.19 -47.6 1968.39 0 1968.39" stroke="rgba(29, 29, 29, 1)" stroke-width="2"></path><path d="M458.82 2160C554.77 1989.76 596.58 1857.27 720 1857.27C834.59 1857.27 843.9 1999.33 934.84 2160C1023.9 2317.36 1000.74 2331.62 1080 2493.33C1088.97 2511.62 1106.34 2500.48 1111.3 2520C1155.43 2693.81 1120.32 2708.05 1178.18 2880C1241.47 3068.05 1382.76 3133.06 1353.6 3240C1333.67 3313.06 1216.8 3240 1080 3240C928 3240 801.75 3317.26 776 3240C741.75 3137.26 974.24 3049.95 960 2880C946.24 2715.67 836.12 2571.43 720 2571.43C608.12 2571.43 610.93 2724.98 504 2880C430.93 2985.93 427.66 3093.33 360 3093.33C295.66 3093.33 242.37 2993.06 240 2880C236.37 2706.39 292 2699.21 348 2520C352 2507.21 356.06 2508.81 360 2496C411.47 2328.81 374.77 2309.12 458.82 2160" stroke="rgba(29, 29, 29, 1)" stroke-width="2"></path><path d="M1380 360C1380 310.69 1424.04 249.23 1440 249.23C1454.04 249.23 1440 304.62 1440 360C1440 384 1451.53 408 1440 408C1421.53 408 1380 390.08 1380 360" stroke="rgba(29, 29, 29, 1)" stroke-width="2"></path><path d="M1035 720C1035 668.86 1050.34 617.14 1080 617.14C1115.2 617.14 1164.71 669.29 1164.71 720C1164.71 768.72 1115.48 816 1080 816C1050.62 816 1035 768.29 1035 720" stroke="rgba(29, 29, 29, 1)" stroke-width="2"></path><path d="M1344 1080C1344 1030.21 1411.11 995.29 1440 995.29C1459.11 995.29 1440 1037.64 1440 1080C1440 1160 1462.16 1240 1440 1240C1414.16 1240 1344 1152.56 1344 1080" stroke="rgba(29, 29, 29, 1)" stroke-width="2"></path><path d="M0 2113.55C19.1 2113.55 61.28 2136.77 61.28 2160C61.28 2183.23 19.1 2206.45 0 2206.45C-11.54 2206.45 0 2183.23 0 2160C0 2136.77 -11.54 2113.55 0 2113.55" stroke="rgba(29, 29, 29, 1)" stroke-width="2"></path><path d="M635.29 2160C635.29 2107.99 679.97 2061.82 720 2061.82C757.17 2061.82 789.68 2108.68 789.68 2160C789.68 2223.22 757.63 2290.91 720 2290.91C680.43 2290.91 635.29 2222.54 635.29 2160" stroke="rgba(29, 29, 29, 1)" stroke-width="2"></path><path d="M1407.27 2160C1407.27 2123.78 1431.49 2081.74 1440 2081.74C1447.85 2081.74 1440 2120.87 1440 2160C1440 2177.65 1446.92 2195.29 1440 2195.29C1430.56 2195.29 1407.27 2180.55 1407.27 2160" stroke="rgba(29, 29, 29, 1)" stroke-width="2"></path><path d="M976 3240C976 3180.01 1030 3060 1080 3060C1128.8 3060 1173.6 3178.41 1173.6 3240C1173.6 3268.41 1126.8 3240 1080 3240C1028 3240 976 3270.01 976 3240" stroke="rgba(29, 29, 29, 1)" stroke-width="2"></path></g><defs><mask id="SvgjsMask1006"><rect width="1440" height="3000" fill="#ffffff"></rect></mask></defs></svg>